<?xml version="1.0" encoding="utf-8"?>
<!-- Svg Vector Icons : http://www.onlinewebfonts.com/icon -->
<!DOCTYPE svg PUBLIC "-//W3C//DTD SVG 1.1//EN" "http://www.w3.org/Graphics/SVG/1.1/DTD/svg11.dtd">
<svg version="1.1" xmlns="http://www.w3.org/2000/svg" xmlns:xlink="http://www.w3.org/1999/xlink" x="0px" y="0px" viewBox="0 0 1000 1000" enable-background="new 0 0 1000 1000" xml:space="preserve">
<metadata> Svg Vector Icons : http://www.onlinewebfonts.com/icon </metadata>
<g><path d="M189.4,379.3V916c0,40.9,33.1,74,74,74h472.5c40.9,0,74-33.1,74-74V379.3H189.4z M369.5,850c0,25.4-20.6,46-46,46c-25.4,0-46-20.6-46-46V513.4c0-25.4,20.6-46,46-46c25.4,0,46,20.6,46,46V850z M545.7,850c0,25.4-20.6,46-46,46c-25.4,0-46-20.6-46-46V513.4c0-25.4,20.6-46,46-46c25.4,0,46,20.6,46,46V850z M721.8,850c0,25.4-20.6,46-46,46c-25.4,0-46-20.6-46-46V513.4c0-25.4,20.6-46,46-46c25.4,0,46,20.6,46,46V850z"/><path d="M630.5,195.9c5.3-14.7,8.2-30.5,8.2-47c0-76.6-62.3-139-139-139c-76.6,0-139,62.3-139,139c0,16.5,2.9,32.3,8.2,47H133.3v121.4h733.3V195.9H630.5z M439,149c0-33.5,27.2-60.7,60.7-60.7c33.5,0,60.7,27.2,60.7,60.7c0,18.9-8.7,35.8-22.3,47h-76.7C447.7,184.8,439,167.9,439,149z"/></g>
</svg>